<?xml version="1.0" encoding="utf-8"?>
<!-- Generator: Adobe Illustrator 26.3.1, SVG Export Plug-In . SVG Version: 6.00 Build 0)  -->
<svg version="1.1" id="Logotyper" xmlns="http://www.w3.org/2000/svg" xmlns:xlink="http://www.w3.org/1999/xlink" x="0px" y="0px"
	 viewBox="0 0 434 138.9" style="enable-background:new 0 0 434 138.9;" xml:space="preserve">
<g id="Group_33" transform="translate(-337.004 -221)">
	<g id="Group_27" transform="translate(143.967)">
		<path id="Path_1187" d="M299.9,235.3c0.1,0.1,0.1,0.2-0.1,0.3c-0.2,0.2-1.3,1.7-1.4,1.9c-0.1,0.1-0.1-0.1-0.1-0.2
			c0.4-1.1,0.1-2.3-0.8-3c-0.9-0.7-2.1-0.5-2.8,0.4c0,0,0,0,0,0c-0.7,1-0.7,1.9,0,4.6c0.7,2.7,0.4,3.7-0.6,4.9
			c-1.3,1.3-3.5,1.5-5,0.3c-2-1.4-2-1.7-2.3-1.8c-0.2-0.1-0.2-0.3,0-0.6c0.3-0.4,1.5-2,1.7-2.3c0.1-0.2,0.2,0,0,0.3
			c-0.6,1.2-0.3,2.6,0.8,3.4c0.8,0.8,2.2,0.7,3-0.1c0-0.1,0.1-0.1,0.1-0.2c0.6-0.7,0.9-1.4,0.1-4.5c-0.9-3.3-0.3-4.4,1-5.4
			c1.3-1.1,3.1-1,4.4,0c0.5,0.4,1,0.8,1.4,1.3c0.2,0.2,0.2,0.3,0.3,0.4C299.9,235.3,299.9,235.2,299.9,235.3z"/>
		<path id="Path_1188" d="M195.9,272.8c0-0.1,0.2-0.1,0.3,0c0.7,0.2,1.4,0.3,2.1,0.4c0.4,0-0.2,0.3-0.4,0.3c-0.5,0.1-1.5,0.4-1.9,2
			c-0.3,0.9,0.2,1.9,1.1,2.2c0.1,0,0.1,0,0.1,0c1.4,0.3,2.2-0.3,4.3-2c1.3-1.4,3.2-2,5-1.6c1.7,0.6,2.7,2.4,2.3,4.2
			c-0.2,0.9-0.6,1.8-1.1,2.6c-0.1,0.2-0.2,0.3-0.6,0.2c-0.5-0.1-2.2-0.4-2.5-0.4c-0.6-0.1-0.3-0.3,0-0.3c0.9-0.1,2.8-0.4,3.2-2.3
			c0.3-1-0.3-2-1.3-2.3c-0.1,0-0.1,0-0.2,0c-0.9-0.2-1.8-0.2-4.3,1.9c-2.7,2.2-3.8,2.2-5.3,1.6c-1.5-0.7-2.3-2.3-1.8-3.9
			c0.2-0.8,0.4-1.6,0.8-2.3C195.9,273.1,195.9,272.9,195.9,272.8z"/>
		<path id="Path_1189" d="M278.2,351.1c-0.2,0-0.2-0.2-0.2-0.3c0,0-0.5-1.6-0.5-1.7c0-0.1,0.1-0.2,0.2-0.1c0.7,0.8,1.7,1.1,2.7,0.9
			c1.1-0.3,1.7-1.3,1.5-2.4c-0.4-1.2-1.5-1.7-4-2.8c-2.2-1-3-2.1-3.2-3.3c-0.2-1.9,1-3.7,2.9-4.3c1.9-0.6,2.3-0.5,2.7-0.7
			c0.3-0.2,0.3,0.4,0.4,0.5c0.2,0.5,0.7,2,0.8,2.3c0.1,0.3-0.1,0.4-0.2,0.1c-0.6-1.1-1.9-1.7-3.2-1.4c-1.7,0.5-1.9,1.7-1.7,2.5
			c0.3,0.9,0.4,1.6,3.5,2.9c3,1.3,3.6,2.6,3.7,4.1c-0.1,1.7-1.4,3.1-3,3.4c-0.5,0.1-1,0.2-1.5,0.2c-0.2,0-0.4,0.1-0.5,0.1
			C278.3,351,278.3,351.1,278.2,351.1z"/>
		<path id="Path_1190" d="M301.4,238.7c0.4-0.2,0.9-0.4,1.3-0.7c0.2-0.1,0.5,0,0.6,0.2c0.1,0.1,2.8,2.8,3.4,3.4
			c0.7,0.8,3.1,3,3.4,3.3s0.6,0.5,0.3,0.7c-0.3,0.2-1,0.6-1.2,0.7c-0.2,0.1-0.1,0-0.1-0.2c0-0.2-0.2-0.6-0.8-1.3
			c-0.7-0.7-1.5-1.5-1.6-1.6c-0.1-0.1-0.2-0.1-0.3,0c-0.2,0.2-2.9,2.9-3.4,3.5c-1.5,1.4-2.9,2.9-4.1,4.5c-0.1,0.6,0.1,0.7,0.1,0.8
			c0.1,0.1,0.2,0.6,0,0.4c-0.2-0.2-1.3-1.4-1.5-1.6c-0.3-0.2-1.3-1.2-1.5-1.3c-0.2-0.2,0-0.2,0.2-0.1c0.4,0.2,0.8,0.2,1.2,0
			c1.5-1.2,2.9-2.5,4.2-3.9c0.4-0.4,3.3-3.4,3.4-3.5c0.1-0.1,0.2-0.2,0-0.4c-0.7-0.8-1.5-1.5-2.3-2.2c-0.2-0.2-0.5-0.3-0.8-0.3
			C301.5,238.9,301.2,238.9,301.4,238.7z"/>
		<path id="Path_1191" d="M202.3,260.4c-0.3-0.3-0.9-0.8-1.2-1.1c-0.2-0.1-0.1-0.3,0.1-0.5c0.1-0.1,2-3.6,2.4-4.3
			c0.6-0.9,2.3-3.8,2.5-4.1c0.2-0.4,0.4-0.7,0.6-0.5c0.3,0.3,0.6,0.6,0.9,1c0.2,0.2,0.1,0.1-0.2,0.1s-0.5,0.5-1,1.3
			c-0.4,0.6-0.7,1.2-1,1.8c-0.1,0.2,0,0.3,0.2,0.4c0.2,0.1,3.4,2.1,4.1,2.5c1.7,1.1,3.5,2,5.4,2.7c0.6,0,0.6-0.1,0.7-0.2
			c0.2-0.1,0.5-0.2,0.3,0c-0.4,0.5-0.8,1.1-1.1,1.7c-0.3,0.5-0.9,1.6-1,1.8s-0.1-0.1-0.1-0.4c0-0.3,0.2-0.6-0.2-0.9
			c-0.8-0.6-4.4-2.7-4.9-3.1c-0.5-0.3-4.1-2.3-4.3-2.4c-0.2-0.1-0.3-0.3-0.5,0c-0.6,1-1.2,2-1.6,3.1c-0.1,0.2-0.1,0.5,0,0.7
			C202.4,260.4,202.4,260.5,202.3,260.4z"/>
		<path id="Path_1192" d="M218.5,239.1c-0.2-0.5-0.4-0.9-0.7-1.4c-0.1-0.2-0.1-0.2,0.2-0.5c0.1-0.1,3.3-2.5,3.9-2.9
			c0.9-0.7,3.8-2.6,4.1-2.9c0.3-0.3,0.7-0.4,0.9-0.1c0.1,0.3,0.5,1.2,0.5,1.4c0.1,0.3,0,0.1-0.3-0.1c-0.2-0.2-0.5-0.1-1.3,0.4
			c-0.8,0.5-2,1.3-2.1,1.4c-0.2,0.1-0.1,0.1-0.1,0.3c0.2,0.4,2.3,3.4,2.9,4.2c1.2,1.7,2.5,3.4,3.9,5c0.2,0.1,0.5,0.1,0.7,0
			c0.2,0,0.4,0,0.1,0.2s-1.2,0.7-1.5,1c-0.3,0.2-1.1,0.8-1.4,1.1c-0.3,0.3-0.2,0-0.1-0.2s0.3-0.3,0-0.8c-0.9-1.6-1.9-3.2-3.1-4.7
			c-0.3-0.5-3.1-4.2-3.3-4.4c-0.1-0.1-0.1-0.2-0.4,0c-0.2,0.2-2.4,1.8-2.7,2.1c-0.2,0.2-0.4,0.3-0.4,0.6
			C218.6,238.9,218.6,239.3,218.5,239.1z"/>
		<path id="Path_1193" d="M315.6,251.5c2.7,2.7,2.7,7.2-0.1,9.9c-0.1,0.1-0.3,0.3-0.4,0.4c-2.8,2.4-7,2.3-9.6-0.3
			c-2.6-2.8-2.5-7.2,0.3-9.9c2.6-2.7,7-2.8,9.7-0.2C315.5,251.4,315.6,251.5,315.6,251.5z M307.5,253.2c-2.4,1.7-2.9,5.1-1.2,7.4
			c0,0.1,0.1,0.1,0.1,0.1c2.3,1.8,5.7,1.4,7.5-0.9c2.4-1.8,2.9-5.3,1-7.7c-0.1-0.1-0.1-0.2-0.2-0.3
			C313.4,250.7,310.4,250.3,307.5,253.2L307.5,253.2z"/>
		<path id="Path_1194" d="M319.6,317.6c-1.2,3.6-5.2,5.5-8.8,4.3c-0.2-0.1-0.5-0.2-0.7-0.3c-3.2-1.5-4.9-5.2-3.8-8.6
			c1.3-3.6,5.2-5.4,8.8-4.1C318.7,310,320.7,313.9,319.6,317.6z M314.4,310.9c-2.5-1.4-5.6-0.5-7,2c-0.1,0.1-0.1,0.2-0.2,0.3
			c-0.6,1.8,0.1,4.6,4.1,6.1c3.9,1.5,6.8,0,7.5-2.6C319.1,315.7,319.2,312.6,314.4,310.9z"/>
		<path id="Path_1195" d="M314.5,277.4c-0.6,0-1.2-0.1-1.8-0.2c-0.4-0.1-0.5-0.1-0.6-0.3c-1.2-1.5-1.8-3.4-1.8-5.3
			c-0.3-3.2,1.8-6.2,4.9-7.2c2.8-0.8,5.7,0.2,7.5,2.5c1,1.4,1.5,3,1.6,4.7c0.1,1,0.2,1.6,0.2,1.9c0.1,0.5,0.1,0.7,0.2,0.8
			c0.1,0.1-0.1,0.3-0.3,0.3c-0.2,0-1,0.1-1.4,0.2c-0.3,0.1-0.9,0.2-1,0.3c-0.4,0.1-0.4,0-0.1-0.3c0.7-0.4,1.2-1.1,1.4-1.9
			c0.4-1.8-0.2-3.8-1.4-5.2c-1.7-1.7-4.3-2.2-6.4-1.1c-2.4,0.9-4,3.1-4,5.7c-0.1,2,1.1,3.9,2.9,4.6
			C314.8,277.3,315.1,277.4,314.5,277.4z"/>
		<path id="Path_1196" d="M325.6,279.1c0,0.5,0.2,2.9,0.3,3.3c0.1,0.5-0.1,0.3-0.2,0.1c-0.1-0.3-0.3-0.5-0.7-0.5
			c-1.9,0-3.8,0.2-5.7,0.4c1.6,1.4,3.2,2.7,5,3.9c0.4,0.3,0.8,0.6,1.3,0.7c0.1,0,0.1,0.1,0.1-0.1c0.1-0.2,0.3-0.9,0.3,0.1
			c0,0.3,0,1,0,1.2s0.1,0.7,0.1,0.8c0.1,0.6,0,0.5-0.4-0.1c-0.7-0.8-1.6-1.5-2.5-2.1c-0.5-0.3-3.4-2.6-3.4-2.6s-4.3,4-5.1,4.9
			c-0.6,0.6-1.2,1.3-1.7,2.1c-0.1,0.3-0.3,0.5-0.2,0.2c0-0.2,0.2-1.4,0.2-1.9c0-0.4,0.1-1.8,0.1-2c0-0.3,0.1-0.1,0.3,0
			c1-0.6,1.9-1.4,2.7-2.4c1-1,2.7-2.8,2.8-3c-1.4,0.1-2.8,0.3-4.1,0.5c-0.5,0.1-1,0.2-1.5,0.5c-0.2,0.1-0.3,0.3-0.3,0.5
			c0,0.2-0.2,0.3-0.2,0c0-0.2-0.1-1.4-0.1-1.9c0-0.4-0.2-1.4-0.2-1.6s0.1-0.3,0.2-0.1c0.1,0.2,0.2,0.3,0.4,0.4
			c0.5,0.2,1.1,0.2,5.8-0.4c1.9-0.1,3.7-0.4,5.5-0.8c0.5-0.1,0.8-0.3,0.9-0.7C325.4,278.8,325.6,278.3,325.6,279.1z"/>
		<path id="Path_1197" d="M325.7,295.2c-0.1,0.4-0.5,2.7-0.5,3.2c0,0.5-0.2,0.5-0.3,0.2c0-0.3-0.2-0.5-0.4-0.6
			c-0.7-0.3-1.5-0.5-2.3-0.6c-1.6-0.3-2.7-0.4-2.7-0.4s-0.5,2.1-0.8,3.4c-0.4,1.6-0.7,3.8-0.7,3.8l3.1,0.9c0.8,0.2,2.1,0.8,2.5,0.1
			c0.3-0.5,0.5-0.4,0.2,0.1c-0.1,0.2-0.7,2.4-0.8,2.9c-0.2,0.8-0.3,0.3-0.2,0.1c0-0.2,0.2-0.5-0.5-0.8c-0.7-0.3-3.2-1.1-5.3-1.7
			c-1.8-0.6-3.7-1.1-5.6-1.3c-0.5,0-0.6,0.2-0.7,0.3c-0.2,0.2-0.5,0.3-0.2-0.1c0.4-1,0.7-2,0.9-3c0.1-1,0.3-0.3,0.3-0.1
			c0,0.3,0.2,0.6,0.4,0.7c1.6,0.7,3.3,1.2,5,1.6c0,0,0.5-2,0.8-3.5c0.4-1.8,0.7-3.6,0.7-3.6s-1-0.2-1.7-0.3
			c-1.2-0.2-2.4-0.4-3.7-0.4c-0.3,0.1-0.5,0.3-0.6,0.5c-0.1,0.2-0.4,0.5-0.2-0.1c0.2-1,0.4-2,0.4-2.9c0-0.8,0.3-0.5,0.3-0.2
			c0,0.2,0.2,0.4,0.4,0.6c1.8,0.5,3.7,0.9,5.6,1.1c2,0.4,4,0.6,6,0.6c0.5-0.2,0.4-0.3,0.5-0.5C325.5,294.9,325.8,294.6,325.7,295.2z
			"/>
		<path id="Path_1198" d="M312.7,327.9c-0.8,0.8-1.5,1.6-2.2,2.5c-0.3,0.5-0.3,0.1-0.2-0.1c0.2-0.3,0.1-0.4-0.1-0.7
			c-1.2-1.3-2.5-2.5-3.9-3.6c-1.3-1.3-2.9-2.4-4.5-3.4c-0.3,0-0.5,0-1.1,0.5c-0.8,0.7-1.5,1.6-2.1,2.5c-0.2,0.4-0.3,0.9-0.3,1.3
			c0,0.3-0.1,0.3-0.2,0c-0.2-0.6-0.3-1.2-0.4-1.8c0-0.2,0.1-0.4,0.2-0.5c0.3-0.4,3.1-3.5,3.5-3.9c0.5-0.5,0.9-1,1.3-1.6
			c0.3-0.4,0.3-0.1,0.3,0.1c-0.2,0.3-0.2,0.6-0.1,0.9c1.3,1.5,2.7,2.8,4.4,3.9c1.5,1.4,3.1,2.6,4.8,3.6c0.2,0,0.5,0,0.6-0.2
			C312.8,327.5,313.1,327.6,312.7,327.9z"/>
		<path id="Path_1199" d="M295.9,327.8c0.1,0.4,1.5,2.8,3,5.2c1.5,2.5,3.2,5.2,3.4,5.6c0.4,0.8,0.5,1-0.3,0.6
			c-1.1-0.6-5.6-2.8-6.3-3.2c-0.7-0.4-4.4-2.2-4.4-2.2s0.8,6,0.9,6.3c0.1,0.3,0.7,5.3,0.7,5.6s0,0.6-0.4,0.2
			c-0.4-0.4-7.5-9.4-7.9-9.8c-0.3-0.3-0.6-0.5-1-0.6c-0.2,0-0.4,0-0.6,0c-0.2,0.1-0.3-0.1-0.1-0.2c0.3-0.1,2.8-1.4,3.1-1.6
			c0.2-0.1,0.4,0,0.1,0.2c-0.3,0.2-0.4,0.3-0.3,0.6c0.2,0.7,5.3,7,5.3,7s-0.9-5.7-1-6.4c-0.2-0.7-0.6-4.1-0.6-4.1s0-0.2,0.2-0.1
			c0.2,0.1,5.2,2.7,5.7,2.9c0.5,0.3,3.7,1.8,3.7,1.8s-2.8-4.6-4-6.4c-0.2-0.3-0.4-0.6-0.8-0.7c-0.4-0.1-0.5,0.1-0.7,0.2
			c-0.1,0.1-0.3-0.1,0.1-0.3c0.4-0.3,0.8-0.5,1.2-0.8c0.3-0.2,1-0.9,1.1-1c0.1-0.1,0.3,0,0.2,0.2
			C295.8,326.9,295.7,327.4,295.9,327.8z"/>
		<path id="Path_1200" d="M265,345.1c0,0.2,0,3,0.1,3.3c0,0.2-0.1,0.1-0.2-0.2c-0.1-0.3-0.3-0.5-0.6-0.6c-1-0.1-2.1-0.2-3.1-0.1
			c-0.1,1.2,0,2.4,0.3,3.6c0.3,0.3,0.4,0.3,0.5,0.3c0.1,0,0.5,0.2,0.3,0.2c-0.4,0-2.8,0-3.4,0c-0.4,0-0.2-0.1,0.1-0.2
			s0.5-0.3,0.6-0.7c0.1-1.1,0.1-2.2,0.1-3.2c-1.1,0-2.2,0-3.3,0.2c-0.2,0.1-0.4,0.4-0.4,0.7c0,0.2-0.3,0.4-0.2,0.1c0.1-1,0.1-2,0-3
			c-0.1-0.4,0-0.3,0.2-0.1c0.2,0.3,0.1,0.5,0.4,0.6c1.1,0.1,2.2,0.2,3.3,0.1c0,0,0-2.7-0.1-3.1c-0.1-0.4-0.3-0.6-0.7-0.7
			c-0.2,0-0.4-0.2-0.1-0.2c1.1,0.1,2.2,0.1,3.2,0c0.3,0,0.1,0.2-0.1,0.2c-0.3,0.1-0.6,0.3-0.7,0.7c-0.1,0.4-0.1,3.1-0.1,3.1
			s2.5,0,3-0.1c0.3-0.1,0.6-0.3,0.7-0.7C264.9,345.1,265.1,344.9,265,345.1z"/>
		<path id="Path_1201" d="M242.1,351.6c-1.2-0.6-2.4-1-3.7-1.3c-0.4-0.1,0-0.2,0.2-0.2c0.3,0,0.6,0.1,0.9-0.2
			c1.4-2.7,2.6-5.5,3.4-8.4c0.7-1.8-0.2-3.7-2-4.4c-0.1-0.1-0.3-0.1-0.4-0.1c-2.9-1-4,0.5-5.6,3.5c-1.1,2.1-2.1,4.2-3,6.4
			c0,0.2,0.1,0.5,0.3,0.6c0.3,0.2,0.4,0.5,0.2,0.4c-1-0.6-2.1-1.1-3.2-1.5c-0.2-0.1-0.1-0.2,0.3-0.2c0.3,0.1,0.4,0,0.6-0.2
			c1.5-2.4,2.9-4.9,4.2-7.4c0.8-1.4,2.1-2.4,3.6-2.7c2.4-0.2,4.7,0.8,6.1,2.7c0.9,1.3,1.1,3,0.6,4.5c-0.3,1.2-2.9,7-2.9,7.8
			c0,0.2,0.1,0.4,0.3,0.5C242.3,351.5,242.4,351.7,242.1,351.6z"/>
		<path id="Path_1202" d="M224,343.8c0,0-0.5-5.9-0.7-7.9c-0.2-2.4-0.8-6.9-0.8-6.9s-4.6,5-5.2,5.6c-0.6,0.6-1.2,1.2-1.2,1.6
			c0,0.2,0.1,0.5,0.3,0.6c0.1,0.1,0.2,0.5,0,0.4c-0.4-0.5-0.8-0.9-1.3-1.3c-0.4-0.4-0.8-0.7-1.2-1c-0.3-0.2,0.1-0.2,0.2-0.1
			c0.2,0.1,0.4,0.2,0.6,0.1c1.8-1.5,3.4-3.2,5-5c1.2-1.3,4-4.3,4.3-4.7c0.2-0.3,0.2-0.2,0.2,0.1c0,0.4,0.5,6.4,0.6,7.1
			c0.1,0.6,0.4,4.7,0.4,5.2c0,0.5,0.2,2,0.2,2s2.1-3,2.8-4.1c0.9-1.1,1.6-2.3,2.2-3.6c0-0.4-0.2-0.7-0.5-0.9c-0.1-0.1-0.2-0.3,0-0.2
			c0.9,0.8,1.9,1.4,2.9,2c0.4,0.2-0.2,0.1-0.3,0c-0.3-0.1-0.6-0.1-0.9,0c-1.3,1.6-2.6,3.3-3.7,5c-0.5,0.8-2.1,3-2.5,3.6
			c-0.4,0.6-1.2,1.9-1.4,2.2C224.1,344.2,224,344.2,224,343.8z"/>
		<path id="Path_1203" d="M218.1,319.3c0.3,0.5,0.7,1.1,1.1,1.6c0.4,0.5,0.8,1,1.3,1.4c0.3,0.2-0.1,0.2-0.3,0
			c-0.2-0.2-0.5-0.3-1.2,0.1c-0.9,0.5-8.4,6.8-8.7,7.2c-0.4,0.4-0.3,0.6-0.2,1c0.1,0.3,0,0.5-0.1,0.3c-0.7-1-1.4-2-2.2-2.8
			c-0.3-0.2,0-0.2,0.2-0.1c0.2,0.1,0.3,0.1,0.5,0c3.3-2.4,6.5-4.9,9.5-7.7c0.1-0.2,0.1-0.5-0.1-0.7
			C217.9,319.4,217.9,319,218.1,319.3z"/>
		<path id="Path_1204" d="M211.5,268c-0.6,1.2-1.1,2.4-1.5,3.7c-0.1,0.3-0.2,0-0.2-0.3c0.1-0.4,0.1-0.6-0.5-1.1
			c-3.5-1.6-7-2.9-10.7-4c-0.3,0-0.6,0.1-0.7,0.4c-0.1,0.2-0.4,0.3-0.3,0c0.6-1.2,1.1-2.4,1.5-3.7c0.1-0.4,0.2,0,0.2,0.2
			c-0.1,0.3,0,0.6,0.2,0.8c3.6,1.8,7.4,3.2,11.2,4.3c0.5-0.1,0.4-0.2,0.6-0.4C211.4,267.8,211.8,267.7,211.5,268z"/>
		<path id="Path_1205" d="M208.2,317.3l2.9-3.8c0,0-5,0.3-6.1,0.4c-1.1,0.1-4.2,0.2-4.5,0.7c-0.2,0.3,0,0.7,0,0.8
			c0,0.2,0,0.6-0.1,0.3c-0.1-0.2-0.4-1.2-0.8-1.9c-0.3-0.6-0.6-1.4-0.7-1.5c-0.2-0.2,0.1-0.2,0.3,0c0.2,0.2,0.4,0.4,0.7,0.4
			c2.1,0.1,4.2,0.1,6.3-0.1c0.9,0,7.5-0.5,8.1-0.4c0.3,0,0.6-0.1,0.2,0.4c-0.2,0.3-4.2,5.5-4.5,5.9c-1.5,1.8-2.8,3.8-4.1,5.8
			c0,0.3,0,0.5,0,0.8c0,0.2,0,0.8-0.1,0.6c-0.6-1.3-1.4-2.4-2.2-3.6c-0.3-0.4,0.1-0.1,0.3,0c0.2,0.1,0.4,0,0.6-0.1
			C205.8,320.4,207.1,318.9,208.2,317.3z"/>
		<path id="Path_1206" d="M208.6,298.4c0.2,0.5,0.8,2.9,1.1,4c0.1,0.4,0.8,2.8,1,3.2c0.1,0.2-0.3-0.1-0.4-0.3c0-0.2-0.1-0.3-0.3-0.4
			c-0.1-0.1-0.3-0.1-0.4-0.1c-2,0.4-3.9,0.9-5.8,1.6c-1.9,0.5-3.7,1.1-5.5,2c-0.2,0.2-0.3,0.5-0.2,0.8c0,0.2-0.1,0.9-0.2,0.4
			c-0.1-0.7-0.3-1.5-0.5-2.2c-0.3-1-1.4-5.1-1.5-5.3c-0.1-0.2-0.1-0.3,0.1-0.4c0.5-0.2,1-0.4,1.5-0.6c0.4-0.2,0.2,0.1,0,0.3
			c-0.2,0.2-0.3,0.3-0.3,0.9c0.2,1.2,0.6,2.4,1,3.6c0,0,1.7-0.4,2.2-0.6s2.4-0.7,2.4-0.7c-0.3-1.2-0.6-2.3-1.1-3.4
			c-0.3-0.4-0.4-0.3-0.7-0.3c-0.2,0-0.5-0.1-0.3-0.2c1-0.2,2-0.5,2.9-0.9c0.3-0.2,0,0.2-0.2,0.3c-0.3,0.1-0.4,0.4-0.4,0.7
			c0.1,0.6,0.2,1.2,0.4,1.8c0.1,0.3,0.5,1.5,0.5,1.5s3.1-0.9,3.6-1.1c0.5-0.2,0.9-0.2,0.8-1.3c-0.2-1.2-0.5-2.4-1.1-3.5
			c-0.2-0.3-0.4-0.6-0.7-0.8c-0.1-0.1-0.5-0.4-0.3-0.4c0.7,0.2,1.4,0.5,2.1,0.8C208.4,298.1,208.5,298.3,208.6,298.4z"/>
		<path id="Path_1207" d="M223.6,250.3c-0.4,0.4-3.1,3.3-3.8,4.1c-0.3,0.3-0.9,1-1,1.2c-0.1,0.2-0.2-0.2-0.1-0.4
			c0.2-0.2,0.2-0.5,0.1-0.7c-1.4-1.6-3-3.1-4.7-4.4c-1.3-1.3-2.8-2.5-4.4-3.5c-0.3-0.1-0.6,0-0.8,0.1c-0.2,0.1-0.6,0.3-0.3,0
			c0.3-0.3,0.7-0.8,1.4-1.5c0.7-0.8,3.6-3.7,3.7-3.9c0.1-0.2,0.2-0.2,0.4-0.1c0.4,0.4,0.7,0.7,1.2,1.1c0.4,0.3,0,0.2-0.2,0.2
			c-0.2-0.1-0.3-0.1-0.8,0.2c-0.9,0.8-1.7,1.6-2.5,2.5l3.4,3.2c0,0,2.4-2.2,2.4-2.7c0-0.2,0-0.4-0.1-0.6c-0.1-0.2,0-0.5,0.1-0.3
			c0.6,0.7,1.2,1.3,1.9,1.8c0.3,0.2-0.1,0.2-0.2,0.1c-0.3-0.1-0.3-0.3-0.8-0.1c-0.9,0.8-1.6,1.6-2.4,2.5c0,0,2.4,2.1,2.9,2.4
			c0.6,0.4,1,0.5,1.6,0c0.9-0.8,1.7-1.6,2.3-2.6c0.1-0.3,0.2-0.7,0.2-1.1c0-0.2,0.1-0.5,0.2-0.3c0,0.2,0.5,1.7,0.6,2
			C223.9,250,223.8,250,223.6,250.3z"/>
		<path id="Path_1208" d="M207.6,291.9c0,0.3,0.1,1.7,0.2,2.3c0.1,0.3-0.2-0.1-0.2-0.3c0-0.2-0.2-0.4-0.4-0.5
			c-1.9-0.1-3.8-0.1-5.7,0.2c-2.1,0.1-4.3,0.4-6.4,0.9c-0.2,0.2-0.3,0.5-0.3,0.9c0,0.2-0.3,0.8-0.3,0.3c0-0.3,0-1.5-0.1-1.9
			c-0.2-1.5-0.3-3-0.2-4.4c0.3-1.6,1.7-2.8,3.3-2.9c1.4,0,2.7,0.8,3.3,2.1c0.2-0.3,0.5-0.6,0.9-0.8c1.9-1.1,3.8-2.4,5.5-3.9
			c0.1-0.3,0.2-0.6,0.1-0.9c0-0.5,0.1-0.9,0.3,0c0.2,1,0.1,2-0.4,2.9c-1.1,1.1-2.4,2.1-3.8,2.9c-0.6,0.4-1.9,1.2-1.9,1.9
			c0,0.4,0,0.8,0.1,1.2c0,0,2-0.2,2.5-0.3c1,0,2-0.2,2.9-0.5c0.2-0.1,0.3-0.4,0.2-0.6c0-0.2,0.3-0.8,0.3,0
			C207.6,290.8,207.6,291.6,207.6,291.9z M199.6,288.7c-1.4-0.9-3.2-0.5-4.2,0.8c-0.3,0.9-0.4,1.8-0.3,2.8l2.8-0.2
			c0.4,0,2.9-0.2,2.9-0.2S201.2,289.6,199.6,288.7L199.6,288.7z"/>
		<path id="Path_1209" d="M256.8,248.3c-1.7-2.1-2.7-4.6-2.7-7.3c0.1-1.7,0.7-3.3,1.8-4.6l0.7-0.8c1.6-1.6,2.6-3.8,2.6-6.2
			c0.1-1.4-0.1-2.9-0.5-4.3c-0.6,4.6-3,8.9-6.6,11.8c-1.6,1.4-4.4,3.8-4.4,6.8c0.2,3.3,1.5,6.5,3.7,9c-0.7-1.7-1-3.5-1-5.3
			c0-1.2,0.1-2.5,0.4-3.7l0.1-0.2l0.1,0.2C252.4,245.9,254.4,247.6,256.8,248.3z"/>
		<path id="Path_1210" d="M257.7,235.6c1.4-0.6,6.6-2.8,6.6-6.4c-0.2-2.3-1.2-4.5-2.8-6.1C263,227.6,261.5,232.6,257.7,235.6z"/>
		<path id="Path_1211" d="M277.1,228.7c-1.9,1.8-4.2,3.2-6.7,4.1l-0.1-0.1c2.1-2.5,3.5-5.5,3.8-8.7c-4.1,6.4-6.6,7.5-9.4,8.8
			l-1.3,0.6c-3.4,1.6-7.4,4-7.4,7.6c-0.3,2.7,0.5,5.3,2.2,7.4c-0.3-1.1-0.5-2.1-0.5-3.2c0-0.7,0.1-1.5,0.3-2.2l0.1-0.3l0,0.3
			c0.8,2.3,2.3,4.3,4.3,5.7c-0.1-0.6-0.1-1.2-0.1-1.7c0-2.7,0.6-7.5,4.8-9.3C274.7,234.3,276.6,230.1,277.1,228.7z"/>
		<path id="Path_1212" d="M270.8,243.6c-0.3-2.6,0.2-5.3,1.5-7.6c-5.4,2.1-9,7.3-9,13.1c0,0.3,0,0.6,0,0.8c0.9-2.5,2.5-4.8,4.6-6.6
			l0.1,0l0.1,0c0,0,0,0,0,0.1c-0.3,2-0.7,4-1.3,5.9C267.5,248.9,270.8,246.5,270.8,243.6z"/>
		<path id="Path_1213" d="M277.9,243.1c0-1.1-0.2-2.1-0.6-3.1c-0.3,1.2-1,2.3-2,3.1l0,0l-0.1-0.1c0.7-1,1-2.3,0.8-3.5
			c0-0.9-0.1-1.7-0.2-2.6c-0.1-0.4-0.1-0.7-0.1-1.1c0-1.5,0.5-3,1.3-4.3c-2.1,1.6-3.6,3.8-4.2,6.4c-0.4,1.6-0.8,3.2-1.1,4.8
			c-0.1,0.6-0.2,1.1-0.4,1.7c-0.6,2-1.4,4-2.3,5.9c1.5-0.9,2.7-2.3,3.4-3.9l0.1-0.2l0,0.2c0.1,0.5,0.1,1,0.1,1.5
			c0,1.4-0.3,2.8-0.8,4.1C273.1,251,277.9,246.9,277.9,243.1z"/>
		<path id="Path_1214" d="M286.6,235c-1.7-1.2-3.8-1.6-5.7-1.1l-0.2,0.1l0.2-0.2c1-1.3,2.3-2.3,3.7-3.1c-2.2-0.4-4.5,0.3-6,2
			c-0.9,1.6-1.4,3.5-1.3,5.3c0,0.4,0,0.7,0,0.9c1.7-2.9,1.9-2.9,1.9-2.9l0.1,0v0.1c0.1,0.4,0.1,0.7,0.1,1.1c0,1.3-0.2,2.5-0.4,3.8
			C281.9,235.3,285.6,235,286.6,235z"/>
		<path id="Path_1215" d="M262.2,335.7l0.3-13.7c0.2,0.3,0.4,0.6,0.6,0.9c0.2,0.5,0.4,1.1,0.6,1.6c0.3,0.3,0.5,0.7,0.6,1.1
			c0.1,0.7,0.4,2.9,0.5,3.4c0.1,0.5,0.1,0.9,0.4,0.9c1.8,0,2.8-3,2.5-4c-0.4-0.8-0.8-1.5-1.4-2.1c0,0-1-3.1-1.2-3.5
			c-0.2-0.4-0.9-0.7-1.1-0.9c-0.1-0.1-0.7-0.7-1.4-1.3l0.1-3.8c-0.2,0-0.4,0-0.6,0c-1.6,0-3.2-0.6-4.4-1.8l0.7,23L262.2,335.7z
			 M266.8,328.3c-0.8,1.1-0.9,1.2-1.2,1.2c-0.3,0-0.3-1.2-0.1-1.9c0.2-0.6,0.6-1.3,1.2-1.3C267.2,326.3,267.6,327.1,266.8,328.3
			L266.8,328.3z"/>
		<path id="Path_1216" d="M292.6,283.7c1.5,0.5,3,0.7,4.6,0.8c2.6-0.4,5-1.6,6.9-3.5c0.9-0.7,1.9-1.2,3-1.8c0,0-1.9,0-4.3-0.2
			c-2.2-0.2-4.5,0.1-6.6,0.8c-1.2,0.4-2.3,1.1-3.2,2c-0.4,0.4-0.8,0.7-1.3,0.9c-0.7,0.2-1.3,0.3-1.3,0.3c0.2-0.6,0.5-1.2,0.9-1.6
			c1.2-0.8,2.4-1.8,3.4-2.9c1.6-2,3-4.1,4.2-6.5c0.2-0.7,1.6-3.9,1.6-3.9c-1.2,0.8-2.4,1.6-3.7,2.3c-2,1.1-3.8,2.6-5,4.5
			c-0.9,1.6-1.3,3.4-1.3,5.3c-0.1,1.7-0.8,3.4-2,4.6c-1.1,1.2-2.4,2.4-3.7,3.4c-0.6,0.5-1.4,0.9-2.1,1.1c-0.5,0.1-1,0.1-1.5,0.1
			c0,0,0.7-0.9,1.2-1.1c1.3-0.4,2.4-1.1,3.3-2.1c1.5-1.8,2.5-4,3-6.3c0.1-0.7,0.8-2.7,0.8-2.7c-0.9,0.9-1.9,1.7-3,2.4
			c-1.9,1.3-3.5,2.9-4.7,4.8c-0.7,1.1-0.9,2.5-0.6,3.8c0,0.3-0.1,0.5-0.6,0.9c-0.4,0.4-1,0.6-1.5,0.7c-1.2,0.4-2.4,0.7-3.7,0.7
			c-1.5-0.1-2.9-0.4-4.3-0.8c-0.5,0-1.3,0.4-1.6,0.5c-0.3,0-0.6-0.1-0.9-0.1c-0.3,0-1.3,0-1.3,0c0.2-0.5,0.3-1.1,0.3-1.6
			c0-0.2,0.1-0.6,0.5-0.7c0.6-0.3,1.2-0.6,1.7-0.9c0.3-0.2,0.7-0.2,1-0.2c1.4,0,2.7-0.4,3.9-1.1c2-1.3,3.7-3.1,4.9-5.1
			c0.8-0.9,1.8-1.7,2.7-2.4c0,0-1.8,0.5-3.8,1.1c-2.2,0.6-4.2,1.6-6.1,3c-0.8,0.7-1.5,1.6-2,2.5c-0.3,0.6-0.6,1.2-1.1,1.8
			c-0.3,0.2-1.3,0.8-1.3,0.6c0.2-0.5,0.4-0.9,0.6-1.3c0.2-0.4,1-1.7,1.5-2.4c0.4-0.6,0.7-1.2,0.9-1.9c0.2-0.7,0.5-1.3,0.9-1.8
			c0.8-1.1,2.1-1.8,3.4-1.9c1.5,0,2.9-0.1,4.4-0.2c1.9-0.3,3.7-1,5.3-2.1c0.6-0.3,3.1-2.1,3.1-2.1s-2.4,0.4-3.2,0.5
			c-1.8,0.1-3.7,0.3-5.5,0.6c-1.7,0.5-3.3,1.4-4.7,2.4c-1,0.7-2,1.5-3,2.3c0-0.4,0-0.9,0.1-1.3c0.1-0.6,0.4-1.1,0.9-1.4
			c1.4-0.8,2.8-1.8,4-2.9c1.3-1.4,2.3-3,3.2-4.7c0.2-0.6,1.5-3.2,1.5-3.2c-0.8,0.7-1.8,1.3-2.8,1.8c-2.1,1-3.9,2.4-5.4,4.2
			c-0.8,1-1.3,2.2-1.4,3.5c0,0.6-0.1,1.1-0.3,1.7c-0.3,0.6-0.4,1.2-0.4,1.8c0,0.7-0.2,1.4-0.5,2c-0.1,0.4-0.3,0.9-0.5,1.3
			c-0.2,0.2-0.3,0.5-0.5,0.8c-0.5,0.8-1,1.6-1.7,2.4c0,0-0.5-0.6,0.2-2.1c0.8-1.6,1.3-3.3,1.4-5.1c-0.1-1.5-0.3-2.9-0.8-4.3
			c-0.3-0.8-1.4-3.8-1.4-3.8c-0.1,0.9-0.3,1.9-0.6,2.8c-0.8,2-1.4,4.1-1.6,6.2c0.1,1.7,0.6,3.4,1.5,4.9c0.4,0.5,0.6,1.2,0.5,1.9
			c-0.1,0.6-0.3,1.2-0.7,1.7c-0.3,0.5-0.4,1.1-0.5,1.7c-0.3,1.4-1.2,2.7-2.5,3.5c-0.1,0.1-0.2,0.2-0.4,0.3l0.5-19.3
			c0-4.4,1.1-8.8,3.2-12.7c0.3-0.5,0.5-0.7,0.5-0.7c1.6-2.1,4-3.5,6.6-3.8v-1.6c0,0-12.1,0-14.5,0h0c-2.3,0-13.3,0-13.3,0v1.6
			c2.6,0.3,5.1,1.6,6.6,3.8c2.1,2.9,3.4,4.6,3.7,13.7l0.7,22.1c-1,0.6-1.6,1.6-1.8,2.8c-0.3-0.4-0.4-1-0.2-1.4
			c0.6-1.3,0.8-2.8,0.6-4.2c-0.7-2.1-1.7-4.1-3.1-5.8c-0.7-0.8-1.9-2.7-1.9-2.7s0,1.8-0.1,3.2c-0.4,1.9-0.3,3.9,0.2,5.8
			c0.6,1.6,1.6,2.9,3,3.9c0.4,0.4,0.7,0.9,0.8,1.4c0.1,0.5,0.1,1-0.1,1.4c0,0.5-0.1,1-0.2,1.5c-0.1,0.5-0.6,0.8-0.6,1.3
			c-0.1,0.7-0.3,1.4-0.5,2.1c-0.1,0.4-0.4,0.5-0.7,1c-0.2,0.3-0.3,0.6-0.2,0.9c-0.7-0.5-1.3-1.2-1.8-1.9c-0.8-2.1-2.6-3.7-4.8-4.1
			c-1.5-0.2-3.1-0.3-4.6-0.1c-1.3,0-2.6-0.2-3.8-0.5c1.1,0.4,2.1,1,2.8,1.9c1.4,1.5,3,2.7,4.9,3.5c1.2,0.4,2.5,0.3,3.7,0
			c0.5-0.1,0.9-0.4,1.4-0.2c0.4,0.2,0.7,0.5,1,0.9c0,0-0.8,0.5-1.4,0.7c-2.1,0.7-3.8,2.1-5,3.9c-0.6,1.5-1.1,3.1-1.4,4.8
			c-0.2,0.9-0.4,1.8-0.7,2.7c0,0,1.2-1,2.2-1.7c1.5-0.9,2.9-2.1,4-3.5c1.1-1.7,1.8-3.7,1.9-5.7c0-0.4,0.3-0.8,0.7-0.8
			c0.4,0.1,0.7,0.5,0.7,0.9c0,0.5,0.2,1,0.5,1.4c0.2,0.3,0.7,0.7,1.1,1.3c0.4,0.8,0.7,1.6,1,2.5c0.3,0.6,0.4,0.5,0.8,1.3
			c0.4,0.8,0.4,1.2,0.7,1.8c0.4,0.6,0.5,0.5,0.5,0.5l-0.2-3.7c-0.1-0.1-0.2-0.1-0.3-0.2c-0.1-0.2-0.3-0.4-0.4-0.6
			c0,0,0.6-0.4,1.1-0.6c0.3-0.2,0.7-0.2,0.9,0.1c1.3,1,2.8,1.6,4.5,1.8c2.6-0.5,5.1-1.5,7.5-2.8c0.9-0.4,1.9-0.7,2.9-1
			c0,0-2.1-0.2-3.2-0.5c-1.7-0.4-3.4-0.7-5.2-0.9c-0.5,0-1,0.1-1.4,0.2l0.1-1.1c0,0-0.9,0.8-1.2,1c-0.7,0.5-1.5,0.9-2.3,1.2
			c-0.5,0.2-1.1,0.4-1.7,0.5c0,0-0.1-0.1-0.2,0.4c-0.1,0.5-0.2,0.5-0.8,0.6c-0.4,0.1-0.8,0.2-1.1,0.4c0,0,0.5-1.3,0.6-1.5
			c0.1-0.2,0.2-0.4,0.9-0.6c1.9-0.4,3.6-1.3,5-2.6c1.6-1.5,2.8-3.3,3.6-5.2c0.7-1.2,1.5-2.2,2.5-3.1c0,0-1.6,0.6-4.7,1.7
			c-0.1,0.1-0.3,0.1-0.4,0.2l0.1-4l0,0V296l-0.2,0.1c-0.5,0.2-1.8,0.6-2.3,0.8s-0.9,0.8-1.4,1c-0.7,0.3-1.4,0.7-2,1.2l0,0.7l0,0
			l0.1,4.3c-0.8,1-1.3,2.3-1.4,3.6c-0.1,0.8-0.2,1.2-0.4,1.6c-0.2,0.5-0.3,0.9-0.5,1.4c-0.3-0.6-0.7-1.2-1.2-1.8
			c-0.4-0.4-0.5-1.1-0.3-1.7c0.2-0.6,0.4-1.2,0.7-1.8c0.3-0.8,0.7-2.4,1-2.8c0.2-0.5,0.1,0.5,0.7-2.4c0.3-1.8,1.6-3.2,3.3-3.8
			c0.4-0.2,0.8-0.8,1.4-1c0.5-0.2,1.9-0.6,2.3-0.8c1-0.4,1.9-1,2.6-1.8c0.4-0.6,0.9-1.1,1.5-1.4c0.8-0.3,1.6-0.4,2.4-0.4
			c1.2-0.1,1.4,0.8,1.7,1.2c0.2,0.3,0.3,0.7,0.3,1.1c-0.1,1.8,0.7,3.5,2.1,4.6c1.8,1.4,4,2.2,6.3,2.5c1.1,0.3,3.7,1.4,3.7,1.4
			s-0.5-0.2-2.3-3c-1.2-2-2.7-3.7-4.6-5.1c-1.1-0.5-2.3-0.9-3.5-1.2c-0.4-0.1-0.8-0.2-1.2-0.5c-0.3-0.4-0.6-0.7-0.9-1.1
			c0.2,0,0.3,0,0.5,0c1.1,0.5,2.3,0.7,3.5,0.7c1.4,0,2.8-0.3,4.1-1c0.5-0.2,1-0.1,1.4,0.1c0.5,0.3,1,0.7,2.1,1.4
			c1.6,1.1,3.4,1.7,5.2,1.8c2.3-0.1,4.5-0.6,6.6-1.4c0.9-0.4,1.8-0.6,2.7-0.8c0,0-1.8-0.3-2.7-0.5c-2.1-0.7-4.2-1.2-6.4-1.4
			c-1.4,0-2.9,0.4-4.1,1.2c-0.4,0.4-0.9,0.5-1.4,0.3c-0.5-0.1-0.9-0.5-1.1-0.9c1.4-0.1,2.8-0.6,4-1.5c0.9-0.8,1.8-1.6,2.6-2.6
			c0.5-0.4,0.8-1,1.8-1.9C290.5,283.6,291.6,283.4,292.6,283.7z M297.7,280.1c2.3-0.5,4.6-0.5,6.9-0.3c-0.6,0.1-4.1,1.7-6.5,2.3
			c-1.7,0.4-3.5,0.7-5.3,0.8l0-0.1C294.1,281.6,295.8,280.6,297.7,280.1z M292.4,275.1c1.5-2.1,3.5-3.7,5.9-4.6c0,0-3,4-4,5.3
			c-1,1.3-3.4,4.9-3.4,4.9C290.8,278.7,291.4,276.7,292.4,275.1L292.4,275.1z M282.5,284.1c1.3-1.9,3.1-3.4,5.1-4.5
			c0,0-2.1,3.5-3.3,5.1c-1.2,1.6-2.9,3.6-2.9,3.6S280.8,286.9,282.5,284.1L282.5,284.1z M273.3,282.3c2-1.1,4.1-2,6.2-2.8
			c0,0-3.6,3.2-5.4,4.5c-1.3,0.9-2.6,1.6-4,2.3C270.8,284.7,271.9,283.3,273.3,282.3L273.3,282.3z M279.2,275.1
			c2.1-0.4,4.2-0.6,6.3-0.7c0,0-4.2,1.5-5.8,2c-1.5,0.4-3.1,0.8-4.7,1C276.2,276.5,277.7,275.7,279.2,275.1L279.2,275.1z
			 M273.6,272.1c1.8-1.9,3.8-3.4,6.1-4.6c0,0-2.7,2.7-4.6,4.9s-3.1,3.7-3.1,3.7l0,0.1C272.3,274.7,272.8,273.3,273.6,272.1
			L273.6,272.1z M267.2,283.4c-0.9-1.4-1.4-3.1-1.4-4.7c0.1-2.1,0.7-4.2,1.7-6.1c0,0-0.1,3.4,0,5.4
			C267.6,279.7,267.5,281.6,267.2,283.4L267.2,283.4z M244.5,303.7c-1.5-0.6-2.8-1.4-4.2-2.2c2-0.3,4.1-0.2,6.1,0.3
			c1.6,0.6,2.8,1.9,3.3,3.5C249.8,305.3,246.2,304.3,244.5,303.7L244.5,303.7z M243.8,316.9c0.2-2.1,0.8-4.2,1.8-6
			c0.9-1.3,2.3-2.2,3.8-2.6L243.8,316.9z M263.7,309.1c2,0.1,4.1,0.4,6,0.8c-2.3,0.6-4.7,1-7,1.3c-1.5,0.1-3,0.1-4.5-0.1
			C258.2,311.1,259.4,309.5,263.7,309.1L263.7,309.1z M259.1,303.2c2.1-1.4,4.3-2.5,6.7-3.2c0,0-4,3.4-5.7,4.9
			c-1.3,1.2-2.5,2.5-3.7,3.9C256.5,306.6,257.5,304.6,259.1,303.2L259.1,303.2z M254.6,297.2c-0.8-1.4-1.4-2.9-1.9-4.4
			c-0.5-1.8-1.2-6.1-1.2-6.1c1.2,1.7,2.4,3.6,3.3,5.5C255.4,293.8,255.3,295.6,254.6,297.2L254.6,297.2z M272.1,292.8
			c1.5,0.3,3,0.9,4.4,1.6c2,1.5,3.6,3.5,4.7,5.7c-1.8-1-3.5-2-5.1-3.2c-1.5-1.2-2.8-2.5-4-4V292.8z M287.7,290.3
			c2.2,0.2,4.4,0.6,6.5,1.3c0,0-4.9,0.6-6.5,0.6c-1.4-0.1-2.8-0.2-4.2-0.4C284.8,291,286.2,290.4,287.7,290.3L287.7,290.3z"/>
		<path id="Path_1217" d="M280.2,270.8c-0.7,0.4-1,1.1-1,1.8c-0.1,0.5,0.3,1,0.8,1.1c0.2,0,0.3,0,0.5-0.1c0.7-0.2,1.2-0.9,1.1-1.7
			c0-0.6-0.5-1.2-1.1-1.2C280.4,270.7,280.3,270.7,280.2,270.8z"/>
		<path id="Path_1218" d="M297.6,276c-0.7,0.4-1,1.1-1,1.8c-0.1,0.5,0.3,1,0.8,1.1c0.2,0,0.3,0,0.5-0.1c0.7-0.2,1.2-0.9,1.1-1.7
			c0-0.6-0.5-1.2-1.1-1.2C297.8,276,297.7,276,297.6,276z"/>
		<path id="Path_1219" d="M268.1,292.6c-0.7,0.4-1,1.1-1,1.8c-0.1,0.5,0.3,1,0.8,1.1c0.2,0,0.3,0,0.5-0.1c0.7-0.2,1.2-0.9,1.1-1.7
			c0-0.6-0.5-1.2-1.1-1.2C268.3,292.6,268.2,292.6,268.1,292.6z"/>
		<path id="Path_1220" d="M288.7,287.1c-0.2,0.5-0.1,1,0.4,1.3c0.2,0.1,0.3,0.1,0.5,0.1c0.8,0,1.4-0.5,1.6-1.3
			c0.2-0.6-0.1-1.3-0.7-1.5c-0.1,0-0.2-0.1-0.3-0.1C289.4,285.8,288.9,286.3,288.7,287.1z"/>
		<path id="Path_1221" d="M279.8,292.6c-0.7,0.4-1,1.1-1,1.8c-0.1,0.5,0.3,1,0.8,1.1c0.2,0,0.3,0,0.5-0.1c0.7-0.2,1.2-0.9,1.1-1.7
			c0-0.6-0.5-1.2-1.1-1.2C280.1,292.6,280,292.6,279.8,292.6z"/>
		<path id="Path_1222" d="M265.8,304.6c-0.7,0.4-1,1.1-1,1.8c-0.1,0.5,0.3,1,0.8,1.1c0.2,0,0.3,0,0.5-0.1c0.7-0.2,1.2-0.9,1.1-1.7
			c0-0.6-0.5-1.2-1.1-1.2C266,304.6,265.9,304.6,265.8,304.6z"/>
		<path id="Path_1223" d="M244,309.7c0.7-0.2,1.2-0.9,1.1-1.7c0-0.6-0.5-1.2-1.1-1.2c-0.1,0-0.2,0-0.3,0c-0.7,0.4-1,1.1-1,1.8
			c-0.1,0.5,0.3,1,0.8,1.1C243.6,309.8,243.8,309.8,244,309.7z"/>
		<path id="Path_1224" d="M250.6,222.5c1.2,1.7,1.9,3.6,2,5.7c0,0.8-0.1,2-0.1,2c-0.1,1.2-0.3,2.4-0.7,3.5c1.1-1.5,1.9-3.2,2.5-5
			l0-0.2l0.1,0.2c0.4,0.7,0.6,1.6,0.7,2.4c0.5-1,0.7-2.2,0.7-3.3C255.6,225,253.4,222.8,250.6,222.5z"/>
		<path id="Path_1225" d="M251.2,231.2L251.2,231.2c-0.1-0.9-0.2-1.8-0.3-2.6c-1.2,2.5-3,4.6-5.2,6.3c-2,1.4-3.3,3.6-3.4,6.1
			c0.4,3.6,2.3,6.9,5.1,9.1c-0.9-2.4-1.4-5-1.4-7.5c0.1-1.3,0.7-2.6,1.8-3.4l0.2-0.2c0.8-0.8,1.5-1.6,2.2-2.5l0,0
			c0.3-0.5,0.6-1.1,0.8-1.7c0.1-0.3,0.1-0.6,0.1-0.9l0,0C251.3,233,251.3,232.1,251.2,231.2z"/>
		<path id="Path_1226" d="M229.5,272.9c-0.7,0-1.2,0.5-1.2,1.2c0,0,0,0,0,0c0,0.3,0.1,0.6,0.3,0.8c-0.1,0-0.3-0.1-0.4-0.1
			c-0.8,0-1.5,0.7-1.5,1.5s0.7,1.5,1.5,1.5c0.1,0,0.3,0,0.4-0.1c-0.3,1.1-1.3,1.8-2.5,1.8c-2.2,0-3.1-2.4-3.2-2.9
			c0.2,0.8,1,1.2,1.8,1c0.8-0.2,1.2-1,1-1.8c-0.2-0.6-0.8-1.1-1.4-1.1c-0.2,0-0.3,0-0.4,0.1c0.6-0.5,0.7-1.5,0.1-2.1
			c-0.5-0.6-1.5-0.7-2.1-0.1c-0.3,0.3-0.5,0.7-0.5,1.1c0,0.4,0.2,0.8,0.5,1.1c-0.2-0.1-0.3-0.1-0.5-0.1c-0.8,0-1.5,0.6-1.5,1.5
			c0,0.8,0.6,1.5,1.5,1.5c0.7,0,1.3-0.4,1.4-1.1c-0.1,0.7-1.3,2.9-3.2,2.9c-1.1,0-2.2-0.7-2.5-1.8c0.1,0,0.3,0.1,0.4,0.1
			c0.8,0,1.5-0.7,1.5-1.5c0-0.8-0.7-1.5-1.5-1.5c-0.1,0-0.3,0-0.4,0.1c0.2-0.2,0.3-0.5,0.3-0.8c0-0.7-0.5-1.2-1.2-1.2c0,0,0,0,0,0
			c-0.3,0-0.5,0-0.7,0.1c0.3,1.2,0.7,3.7,0.7,4l1,6.7h11.1c0,0,0-0.1,0-0.2l1-6.5c0.2-1.5,0.5-3.1,0.7-4
			C230,272.9,229.8,272.9,229.5,272.9z"/>
		<path id="Path_1227" d="M250.4,272.9c-0.7,0-1.2,0.5-1.2,1.2v0c0,0.3,0.1,0.6,0.3,0.8c-0.1,0-0.3-0.1-0.4-0.1
			c-0.8,0-1.5,0.7-1.5,1.5s0.7,1.5,1.5,1.5c0.1,0,0.3,0,0.4-0.1c-0.3,1.1-1.3,1.8-2.5,1.8c-2.2,0-3.1-2.4-3.2-2.9
			c0.2,0.8,1,1.2,1.8,1c0.8-0.2,1.2-1,1-1.8c-0.2-0.6-0.8-1.1-1.4-1.1c-0.2,0-0.3,0-0.4,0.1c0.6-0.5,0.7-1.5,0.1-2.1
			c-0.5-0.6-1.5-0.7-2.1-0.1c-0.3,0.3-0.5,0.7-0.5,1.1c0,0.4,0.2,0.8,0.5,1.1c-0.2-0.1-0.3-0.1-0.5-0.1c-0.8,0-1.5,0.6-1.5,1.5
			c0,0.8,0.6,1.5,1.5,1.5c0.7,0,1.3-0.4,1.4-1.1c-0.1,0.7-1.3,2.9-3.2,2.9c-1.1,0-2.2-0.7-2.5-1.8c0.1,0,0.3,0.1,0.4,0.1
			c0.8,0,1.5-0.7,1.5-1.5s-0.7-1.5-1.5-1.5c-0.1,0-0.3,0-0.4,0.1c0.2-0.2,0.3-0.5,0.3-0.8c0-0.7-0.5-1.2-1.2-1.2c0,0,0,0,0,0
			c-0.3,0-0.5,0-0.7,0.1c0.3,1.2,0.7,3.7,0.7,4l1,6.7h11.1c0,0,0-0.1,0-0.2l1-6.5c0.2-1.5,0.5-3.2,0.7-4
			C251,272.9,250.7,272.9,250.4,272.9z"/>
		<path id="Path_1228" d="M240.8,286.3c-0.7,0-1.3,0.6-1.3,1.3c0,0,0,0,0,0c0,0.3,0.1,0.6,0.4,0.9c-0.9-0.3-1.8,0.2-2,1.1
			c-0.3,0.9,0.2,1.8,1.1,2c0.2,0,0.3,0.1,0.5,0.1c0.1,0,0.3,0,0.4-0.1c-0.4,1.2-1.5,2-2.7,2c-2.4,0-3.4-2.6-3.5-3.2
			c0.3,0.9,1.2,1.4,2,1.1c0.9-0.3,1.4-1.2,1.1-2c-0.2-0.7-0.8-1.2-1.6-1.2c-0.2,0-0.3,0-0.5,0.1c0.7-0.6,0.7-1.6,0.1-2.3
			c-0.6-0.7-1.6-0.7-2.3-0.1c-0.3,0.3-0.5,0.7-0.5,1.2c0,0.5,0.2,0.9,0.6,1.2c-0.2-0.1-0.3-0.1-0.5-0.1c-0.9,0-1.6,0.7-1.6,1.6
			c0,0.9,0.7,1.6,1.6,1.6c0.7,0,1.4-0.5,1.6-1.2c-0.1,0.7-1.5,3.2-3.5,3.2c-1.3,0-2.4-0.8-2.7-2c0.1,0,0.3,0.1,0.4,0.1
			c0.9,0,1.7-0.7,1.7-1.6c0-0.9-0.7-1.7-1.6-1.7c0,0-0.1,0-0.1,0c-0.2,0-0.3,0-0.5,0.1c0.2-0.2,0.4-0.5,0.4-0.9
			c0-0.7-0.6-1.3-1.3-1.3c0,0,0,0,0,0c-0.3,0-0.6,0-0.8,0.2c0.3,1.4,0.7,4.1,0.8,4.4l1.1,7.4h12.2c0,0,0-0.1,0-0.2l1.1-7.2
			c0.2-1.7,0.6-3.6,0.8-4.4C241.4,286.3,241.1,286.2,240.8,286.3z"/>
	</g>
	<path id="Path_1379" d="M502.2,278.4h4v4.6c2.1,0.9,4.4,1.4,6.7,1.3c4.9,0,8.1-2.3,8.1-6.3c0-9.1-18.7-3.7-18.7-15.9
		c0-4.2,2.5-9.6,12.6-9.6c3.1,0,6.2,0.6,9.1,1.6v6.8h-3.8v-4.2c-1.8-0.6-3.8-0.9-5.7-0.9c-3.7,0-7.7,1.4-7.7,5.9
		c0,8.7,18.7,3.2,18.7,15.8c0,7.5-6.4,10.2-12.9,10.2c-3.5,0.1-6.9-0.5-10.2-1.7v-7.5L502.2,278.4L502.2,278.4z"/>
	<path id="Path_1380" d="M528.4,261.9h4l0.2-6.1l4-0.2l-0.2,6.3h7.9v3h-8c-0.1,4.2-0.2,8.4-0.2,12.6s0,6.7,3.9,6.7
		c1.7,0,3.4-0.4,4.9-1.1l-0.1,3.2c-1.8,0.8-3.7,1.2-5.6,1.2c-7,0-7-5-7-8.2s0.1-10.8,0.2-14.4h-4L528.4,261.9z"/>
	<path id="Path_1381" d="M559.3,261.3c6.4-0.3,11.9,4.6,12.2,11.1c0,0.5,0,0.9,0,1.4c0,7.2-4.5,13.8-12.2,13.8
		c-6.4,0.3-11.9-4.6-12.2-11c0-0.5,0-1,0-1.5C547.1,267.9,551.7,261.3,559.3,261.3z M559.3,284.2c5.3,0,8-4.4,8-9.8s-2.6-9.8-8-9.8
		s-8,4.4-8,9.8C551.3,279.9,553.9,284.2,559.3,284.2z"/>
	<path id="Path_1382" d="M595.7,286.3c-2.3,0.7-4.8,1.1-7.2,1.2c-9.9,0-13.1-6.5-13.1-13.1c-0.5-6.7,4.5-12.5,11.2-13.1
		c0.4,0,0.9,0,1.3,0c2.7,0,5.5,0.4,8.1,1.3v6.5h-3.5v-3.9c-1.3-0.4-2.7-0.6-4.2-0.6c-7.2,0-8.7,5.7-8.7,9.8c-0.4,5,3.3,9.4,8.3,9.8
		c0.4,0,0.8,0,1.2,0c2.3-0.1,4.6-0.6,6.8-1.4L595.7,286.3z"/>
	<path id="Path_1383" d="M603,252.6h-4.9v-3.1h8.9v23.3l9.6-7.9H613v-3.1h10.8v3h-2.6l-10.4,8.4l11.3,10.5h2.7v3H614v-3h3l-10.1-9.7
		v9.8h3.3v3h-11v-3h3.6L603,252.6z"/>
	<path id="Path_1384" d="M631.3,252.6h-4.9v-3.1h8.9v13.2c-0.1,1.6-0.2,3.1-0.5,4.6h0.1c1.3-3.7,4.9-6.2,8.9-6.1
		c6.9,0,8.6,4.6,8.6,9.4c0,4.8-0.2,9.3-0.2,13.2h3.7v3h-11v-3h3.2c0-3.9,0.2-8,0.2-12c0-2.5-0.1-7.3-5.7-7.3c-3.5,0-7.5,2.1-7.5,8.9
		l-0.1,10.3h3.7v3h-11.3v-3h3.6L631.3,252.6z"/>
	<path id="Path_1385" d="M670.6,261.3c6.4-0.3,11.9,4.6,12.2,11.1c0,0.5,0,0.9,0,1.4c0,7.2-4.5,13.8-12.2,13.8
		c-6.4,0.3-11.9-4.6-12.2-11c0-0.5,0-1,0-1.5C658.4,267.9,663,261.3,670.6,261.3z M670.6,284.2c5.3,0,8-4.4,8-9.8s-2.6-9.8-8-9.8
		c-5.3,0-8,4.4-8,9.8C662.7,279.9,665.3,284.2,670.6,284.2z"/>
	<path id="Path_1386" d="M689.3,252.6h-4.9v-3.1h8.9l-0.2,34.3h4v3h-11.5v-3h3.6L689.3,252.6z"/>
	<path id="Path_1387" d="M700.6,283.9h3.2l0.2-18.9h-4v-3h8c0,1-0.1,2.3-0.1,3l-0.4,2.5h0.1c1.3-3.7,4.9-6.2,8.9-6.1
		c3.6-0.1,6.8,2.4,7.6,5.9h0.1c1.2-3.7,4.7-6.1,8.5-5.9c6.5,0,8.6,4.6,8.6,9.4c0,4.8-0.2,9.3-0.2,13.2h3.7v3h-10.9v-3h3.2
		c0.1-4.1,0.2-8.1,0.2-12.2c0-4.1-0.8-7.2-5.4-7.2c-3.2,0-7.2,2.1-7.2,8.9v10.3h3.6v3h-11v-3h3.3c0.1-4.1,0.2-8.1,0.2-12.2
		c0-4.1-0.8-7.2-5.4-7.2c-3.2,0-7.1,2.1-7.2,8.9v10.3h3.7v3h-11v-3L700.6,283.9L700.6,283.9z"/>
	<path id="Path_1388" d="M765.4,268.8h-3.6l-0.2-3.5c-1.4-0.7-2.9-1-4.4-0.9c-2.5,0-5.8,0.8-5.8,3.9c0,3,2.5,3.5,6.1,4.2
		c6.3,1.1,9,3,9,7.2s-3,8-10.3,8c-2.9,0-5.8-0.5-8.6-1.5l-0.2-6.4h3.6l0.2,3.7c1.8,0.7,3.7,1.1,5.7,1.1c2.6,0,5.8-1.1,5.8-4.2
		c0-3-2.6-3.4-5.3-3.9c-6.7-1.5-10.1-2.6-10.1-7.5c0-4.9,2.7-7.5,9.9-7.5c2.7,0.1,5.4,0.6,8,1.5L765.4,268.8z"/>
	<path id="Path_1389" d="M501.8,304.3h8c0,4.6-0.2,9.1-0.2,14.9c0,3.7,0.7,7.5,5.6,7.5c7.3,0,7.4-8,7.4-11.5v-7.7h-3.9v-3.1h8
		l-0.2,22h3.5v3h-7.5c0-1,0.1-2.3,0.1-3l0.4-2.5H523c-1.3,3.6-4.6,6-8.4,6.1c-7.2,0-8.9-4.6-8.9-10.3c0-4.6,0.1-8.4,0.2-12.3h-4
		L501.8,304.3L501.8,304.3L501.8,304.3z"/>
	<path id="Path_1390" d="M551,326.2h3.2c0-3.9,0.2-8,0.2-12c0-2.5-0.1-7.3-5.7-7.3c-3.5,0-7.5,2.1-7.5,8.9v10.3h3.7v3h-11v-3h3.2
		l0.2-18.9h-4.1v-3.1h8c0,1-0.1,2.3-0.1,3l-0.4,2.5h0.1c1.3-3.7,4.9-6.2,8.9-6.1c6.9,0,8.6,4.6,8.6,9.4c0,4.8-0.2,9.3-0.2,13.2h3.7
		v3h-10.9v-3L551,326.2L551,326.2z"/>
	<path id="Path_1391" d="M569.3,307.3h-4.6v-3.1h8.6l-0.2,22h4v3h-12v-3h4L569.3,307.3z M570.7,291.5c1.7,0,3,1.4,3,3
		c0,1.7-1.4,3-3,3c-1.7,0-3-1.4-3-3S569.1,291.5,570.7,291.5L570.7,291.5z"/>
	<path id="Path_1392" d="M577.1,304.3h10.3v3.1h-3l5.8,16.1c0.2,0.7,0.4,1.4,0.6,2.1h0.1c0.1-0.7,0.3-1.4,0.6-2.1l5.9-16.1H594v-3.1
		h10v3.1h-2.7l-8.7,22h-4l-8.7-22H577L577.1,304.3L577.1,304.3z"/>
	<path id="Path_1393" d="M609.5,317.2c0.1,5.1,2.4,9.5,9.5,9.5c2.6-0.1,5.2-0.7,7.5-1.9l-0.1,3.4c-2.6,1.1-5.4,1.7-8.2,1.8
		c-8,0-12.8-4.3-12.8-13.1c0-7.4,4-13.2,11.6-13.2c9.9,0,10.8,9,10.8,13.4L609.5,317.2z M623.7,314.1c0.3-3.7-2.4-7-6.2-7.3
		c-0.2,0-0.3,0-0.5,0c-4.1,0-7.4,3.3-7.5,7.3L623.7,314.1z"/>
	<path id="Path_1394" d="M635.6,307.3h-4.3v-3.1h8.2v1.3c-0.1,2.2-0.3,4.3-0.6,6.5h0.1c1-3.7,2.3-8.2,8.5-8.2c0.9,0,1.7,0.2,2.5,0.4
		l-0.4,3.6c-0.9-0.3-1.8-0.4-2.7-0.4c-5.1,0-7.5,5.1-7.5,9.5l-0.2,9.4h4.2v3h-11.8v-3h3.5L635.6,307.3z"/>
	<path id="Path_1395" d="M669.9,311.2h-3.6l-0.2-3.5c-1.4-0.7-2.9-1-4.4-0.9c-2.5,0-5.8,0.8-5.8,3.9s2.5,3.5,6.1,4.2
		c6.3,1.1,9,3,9,7.2s-3,8-10.3,8c-2.9,0-5.8-0.5-8.6-1.5l-0.2-6.4h3.6l0.2,3.7c1.8,0.7,3.7,1.1,5.7,1.1c2.6,0,5.8-1.1,5.8-4.2
		c0-3-2.6-3.4-5.3-3.9c-6.7-1.5-10.1-2.6-10.1-7.5c0-4.9,2.7-7.5,9.9-7.5c2.7,0.1,5.4,0.6,8,1.5L669.9,311.2z"/>
	<path id="Path_1396" d="M679.2,307.3h-4.6v-3.1h8.6l-0.2,22h4v3h-12v-3h4L679.2,307.3z M680.7,291.5c1.7,0,3,1.4,3,3
		c0,1.7-1.4,3-3,3c-1.7,0-3-1.4-3-3S679.1,291.5,680.7,291.5L680.7,291.5z"/>
	<path id="Path_1397" d="M688.8,304.3h4l0.2-6.1l4-0.2l-0.2,6.3h7.9v3.1h-8c-0.1,4.2-0.2,8.4-0.2,12.6s0,6.7,3.9,6.7
		c1.7,0,3.4-0.4,4.9-1.1l-0.1,3.2c-1.8,0.8-3.7,1.2-5.6,1.2c-7,0-7-5-7-8.2c0-3.2,0.1-10.8,0.2-14.4h-4L688.8,304.3z"/>
	<path id="Path_1398" d="M711.1,317.2c0.1,5.1,2.4,9.5,9.5,9.5c2.6-0.1,5.2-0.7,7.5-1.9l-0.1,3.4c-2.6,1.1-5.4,1.7-8.2,1.8
		c-8,0-12.8-4.3-12.8-13.1c0-7.4,4-13.2,11.6-13.2c9.9,0,10.8,9,10.8,13.4L711.1,317.2z M725.3,314.1c0.3-3.7-2.4-7-6.2-7.3
		c-0.2,0-0.4,0-0.5,0c-4.1,0-7.4,3.3-7.5,7.3L725.3,314.1z"/>
	<path id="Path_1399" d="M731.3,304.3h4l0.2-6.1l4-0.2l-0.2,6.3h7.9v3.1h-8c-0.1,4.2-0.2,8.4-0.2,12.6s0,6.7,3.9,6.7
		c1.7,0,3.4-0.4,4.9-1.1l-0.1,3.2c-1.8,0.8-3.7,1.2-5.6,1.2c-7,0-7-5-7-8.2c0-3.2,0.1-10.8,0.2-14.4h-4L731.3,304.3z"/>
</g>
</svg>
